<?xml version="1.0" standalone="no"?>
<!DOCTYPE svg PUBLIC "-//W3C//DTD SVG 20010904//EN"
 "http://www.w3.org/TR/2001/REC-SVG-20010904/DTD/svg10.dtd">
<svg version="1.0" xmlns="http://www.w3.org/2000/svg"
 width="700.000000pt" height="700.000000pt" viewBox="0 0 700.000000 700.000000"
 preserveAspectRatio="xMidYMid meet">
<metadata>
Created by potrace 1.14, written by Peter Selinger 2001-2017
</metadata>
<g transform="translate(0.000000,700.000000) scale(0.100000,-0.100000)"
fill="#000000" stroke="none">
<path d="M2848 5815 l-3 -1184 -1020 589 c-561 324 -1023 590 -1026 590 -8 0
-649 -1107 -649 -1120 0 -4 459 -273 1020 -597 561 -323 1020 -590 1020 -593
0 -3 -457 -268 -1016 -590 -559 -322 -1018 -590 -1020 -595 -7 -16 634 -1120
649 -1119 6 1 469 265 1027 587 l1015 586 3 -1184 2 -1185 650 0 650 0 2 1185
3 1185 1015 -587 c558 -322 1021 -586 1027 -587 15 -1 656 1103 649 1119 -2 5
-461 273 -1020 595 -559 322 -1016 587 -1016 590 0 3 457 268 1016 590 559
322 1018 590 1020 596 4 9 -612 1092 -636 1118 -5 4 -469 -258 -1032 -583
l-1023 -590 -3 1184 -2 1185 -650 0 -650 0 -2 -1185z"/>
</g>
</svg>
